<svg width="24" height="22" viewBox="0 0 24 22" fill="none" xmlns="http://www.w3.org/2000/svg">
<path d="M17.497 21.9821C15.8685 21.9875 14.1883 21.5662 12.5686 20.8246C12.257 20.6821 11.7632 20.6908 11.4461 20.8317C7.737 22.4768 4.09646 22.391 0.489573 20.5334C0.114836 20.3403 -0.00839352 20.1286 0.000438646 19.7057C0.0887603 15.6254 1.94688 12.5117 5.26104 10.1537C5.52138 9.96849 5.73462 9.56912 5.76953 9.24806C6.09589 6.21886 7.27983 3.61098 9.59512 1.55575C10.1877 1.02962 10.8329 0.549059 11.5075 0.131052C11.7468 -0.0172589 12.2296 -0.05123 12.4576 0.0892101C15.956 2.24428 17.8961 5.34888 18.2578 9.41584C18.2847 9.71702 18.5892 10.0658 18.8617 10.2635C22.0388 12.5672 23.7312 15.6524 23.9953 19.5226C24.034 20.088 23.8343 20.3764 23.3165 20.6312C21.5282 21.5119 19.6604 22.0091 17.497 21.9821ZM17.1399 10.5319C14.2896 9.09892 11.3986 8.87604 8.39983 9.84959C6.86513 10.348 6.79952 10.3331 7.04136 11.8754C7.50946 14.8636 9.0307 17.2291 11.5521 18.9712C11.9171 19.2234 12.1724 19.1721 12.5093 18.931C15.3894 16.8712 16.917 14.0934 17.1399 10.5319ZM5.75481 11.2851C3.04291 12.9401 1.15241 16.4548 1.15535 19.291C1.15535 19.4973 1.46448 19.7927 1.69832 19.895C3.82645 20.8246 6.04038 21.1585 8.33674 20.6539C9.1594 20.4733 9.96354 20.2098 10.9536 19.9348C7.79504 17.6964 6.25445 14.7903 5.75481 11.2851ZM13.1986 19.9203C16.5242 21.2493 19.7096 21.236 22.8278 19.6067C22.6486 16.0555 21.1064 13.3399 18.2763 11.2345C17.6076 15.13 16.8539 16.4171 13.1986 19.9203ZM17.0141 9.2145C16.8589 6.13559 14.9251 2.90506 12.3352 1.36477C12.1703 1.267 11.8196 1.2641 11.6778 1.37223C10.9864 1.90085 10.2689 2.42201 9.6847 3.05627C8.10542 4.76972 7.16501 6.78186 6.96313 9.21533C10.3429 7.7753 13.647 7.79974 17.0141 9.2145Z" fill="#E93558"/>
</svg>
